<svg width="194" height="122" viewBox="0 0 194 122" fill="none" xmlns="http://www.w3.org/2000/svg">
<path d="M194 0H0V121.25H194V0Z" fill="white"/>
<g opacity="0.45">
<path d="M194 0H0V121.25H194V0Z" fill="black"/>
</g>
<path d="M143.621 22.2544H50.3794V98.9467H143.621V22.2544Z" fill="white"/>
<path d="M79.1459 26.6177H55.0676V29.5063H79.1459V26.6177Z" fill="#6F6F6F"/>
<path d="M80.6989 34.4995H55.0676V36.1155H80.6989V34.4995Z" fill="#A8A8A8"/>
<path d="M71.9588 42.1907H57.7908V43.8067H71.9588V42.1907Z" fill="#161616"/>
<path d="M95.0094 46.3923H55.2292V46.8771H95.0094V46.3923Z" fill="#C6C6C6"/>
<path d="M124.939 34.4995H99.3076V36.1155H124.939V34.4995Z" fill="#A8A8A8"/>
<path d="M132.538 42.1907H102.032V43.8067H132.538V42.1907Z" fill="#161616"/>
<path d="M139.249 46.3923H99.4692V46.8771H139.249V46.3923Z" fill="#C6C6C6"/>
<path d="M80.6989 56.9307H55.0676V58.5467H80.6989V56.9307Z" fill="#A8A8A8"/>
<path d="M79.1459 64.6218H57.7908V66.2378H79.1459V64.6218Z" fill="#161616"/>
<path d="M95.0094 68.8235H55.2292V69.3083H95.0094V68.8235Z" fill="#C6C6C6"/>
<path d="M124.939 56.9307H99.3076V58.5467H124.939V56.9307Z" fill="#A8A8A8"/>
<path d="M121.338 64.6218H102.032V66.2378H121.338V64.6218Z" fill="#161616"/>
<path d="M139.249 68.8235H99.4692V69.3083H139.249V68.8235Z" fill="#C6C6C6"/>
<path d="M80.6989 78.0366H55.0676V79.6526H80.6989V78.0366Z" fill="#A8A8A8"/>
<path d="M87.0433 85.7278H57.7908V87.3438H87.0433V85.7278Z" fill="#161616"/>
<path d="M95.0094 89.9294H55.2292V90.4142H95.0094V89.9294Z" fill="#C6C6C6"/>
<path d="M124.939 78.0366H99.3076V79.6526H124.939V78.0366Z" fill="#A8A8A8"/>
<path d="M127.573 85.7278H102.032V87.3438H127.573V85.7278Z" fill="#161616"/>
<path d="M139.249 89.9294H99.4692V90.4142H139.249V89.9294Z" fill="#C6C6C6"/>
</svg>
