<svg width="194" height="122" viewBox="0 0 194 122" fill="none" xmlns="http://www.w3.org/2000/svg">
<path d="M194 0H0V121.25H194V0Z" fill="white"/>
<g opacity="0.45">
<path d="M194 0H0V121.25H194V0Z" fill="black"/>
</g>
<path d="M143.621 22.2634H50.3794V98.9874H143.621V22.2634Z" fill="#393939"/>
<path d="M79.1459 26.6284H55.0676V29.5182H79.1459V26.6284Z" fill="white"/>
<path d="M80.6989 34.5137H55.0676V36.1303H80.6989V34.5137Z" fill="#E0E0E0"/>
<path d="M71.9588 42.208H57.7908V43.8247H71.9588V42.208Z" fill="white"/>
<path d="M95.0094 46.4114H55.2292V46.8964H95.0094V46.4114Z" fill="#C6C6C6"/>
<path d="M124.939 34.5137H99.3076V36.1303H124.939V34.5137Z" fill="#E0E0E0"/>
<path d="M132.538 42.208H102.032V43.8247H132.538V42.208Z" fill="white"/>
<path d="M139.249 46.4114H99.4692V46.8964H139.249V46.4114Z" fill="#C6C6C6"/>
<path d="M80.6989 56.9541H55.0676V58.5708H80.6989V56.9541Z" fill="#E0E0E0"/>
<path d="M79.1459 64.6484H57.7908V66.2651H79.1459V64.6484Z" fill="white"/>
<path d="M95.0094 68.8518H55.2292V69.3368H95.0094V68.8518Z" fill="#C6C6C6"/>
<path d="M124.939 56.9541H99.3076V58.5708H124.939V56.9541Z" fill="#E0E0E0"/>
<path d="M121.338 64.6484H102.032V66.2651H121.338V64.6484Z" fill="white"/>
<path d="M139.249 68.8518H99.4692V69.3368H139.249V68.8518Z" fill="#C6C6C6"/>
<path d="M80.6989 78.0688H55.0676V79.6855H80.6989V78.0688Z" fill="#E0E0E0"/>
<path d="M87.0433 85.7632H57.7908V87.3799H87.0433V85.7632Z" fill="white"/>
<path d="M95.0094 89.9666H55.2292V90.4516H95.0094V89.9666Z" fill="#C6C6C6"/>
<path d="M124.939 78.0688H99.3076V79.6855H124.939V78.0688Z" fill="#E0E0E0"/>
<path d="M127.573 85.7632H102.032V87.3799H127.573V85.7632Z" fill="white"/>
<path d="M139.249 89.9666H99.4692V90.4516H139.249V89.9666Z" fill="#C6C6C6"/>
</svg>
