<?xml version="1.0" encoding="UTF-8"?><svg id="Layer_2" xmlns="http://www.w3.org/2000/svg" viewBox="0 0 1920 1200"><defs><style>.cls-1{fill:#bababa;}.cls-1,.cls-2,.cls-3,.cls-4,.cls-5,.cls-6,.cls-7{stroke-width:0px;}.cls-2{fill:#d8d8d8;}.cls-3{fill:#7c7c7c;}.cls-4{fill:#000;}.cls-5{fill:#a8a8a8;}.cls-6{fill:#353535;}.cls-8{opacity:.45;}.cls-7{fill:#fff;}</style></defs><g id="Layer_1-2"><rect class="cls-7" width="1920" height="1200"/><g class="cls-8"><rect class="cls-4" width="1920" height="1200"/></g><rect class="cls-7" x="498.6" y="220.34" width="922.8" height="759.33"/><rect class="cls-3" x="545" y="263.54" width="238.3" height="28.6"/><rect class="cls-2" x="542.94" y="333.38" width="398.36" height="266.62"/><rect class="cls-1" x="571.87" y="410.91" width="141.87" height="16"/><rect class="cls-6" x="586.95" y="441.23" width="121.27" height="16"/><rect class="cls-5" x="572.77" y="471.49" width="161" height="4.8"/><rect class="cls-1" x="754.59" y="502.35" width="141.87" height="16"/><rect class="cls-6" x="769.67" y="532.66" width="121.27" height="16"/><rect class="cls-5" x="755.49" y="562.92" width="161" height="4.8"/><rect class="cls-1" x="571.87" y="502.35" width="106.23" height="16"/><rect class="cls-6" x="586.95" y="532.66" width="95.91" height="16"/><rect class="cls-5" x="572.77" y="562.92" width="161" height="4.8"/><rect class="cls-1" x="755.04" y="410.91" width="106.23" height="16"/><rect class="cls-6" x="770.11" y="441.23" width="95.91" height="16"/><rect class="cls-5" x="755.93" y="471.49" width="161" height="4.8"/><rect class="cls-3" x="572.76" y="353.14" width="170.53" height="16"/><rect class="cls-2" x="978.7" y="333.38" width="398.36" height="266.62"/><rect class="cls-1" x="1007.63" y="410.91" width="141.87" height="16"/><rect class="cls-6" x="1022.7" y="441.23" width="121.27" height="16"/><rect class="cls-5" x="1008.52" y="471.49" width="161" height="4.8"/><rect class="cls-1" x="1190.35" y="502.35" width="141.87" height="16"/><rect class="cls-6" x="1205.42" y="532.66" width="121.27" height="16"/><rect class="cls-5" x="1191.24" y="562.92" width="161" height="4.8"/><rect class="cls-1" x="1007.63" y="502.35" width="106.23" height="16"/><rect class="cls-6" x="1022.7" y="532.66" width="95.91" height="16"/><rect class="cls-5" x="1008.52" y="562.92" width="161" height="4.8"/><rect class="cls-1" x="1190.79" y="410.91" width="106.23" height="16"/><rect class="cls-6" x="1205.87" y="441.23" width="95.91" height="16"/><rect class="cls-5" x="1191.69" y="471.49" width="161" height="4.8"/><rect class="cls-3" x="1008.51" y="353.14" width="170.53" height="16"/><rect class="cls-2" x="542.94" y="641.24" width="398.36" height="266.62"/><rect class="cls-1" x="571.87" y="718.78" width="141.87" height="16"/><rect class="cls-6" x="586.95" y="749.09" width="121.27" height="16"/><rect class="cls-5" x="572.77" y="779.35" width="161" height="4.8"/><rect class="cls-1" x="754.59" y="810.21" width="141.87" height="16"/><rect class="cls-6" x="769.67" y="840.53" width="121.27" height="16"/><rect class="cls-5" x="755.49" y="870.79" width="161" height="4.8"/><rect class="cls-1" x="571.87" y="810.21" width="106.23" height="16"/><rect class="cls-6" x="586.95" y="840.53" width="95.91" height="16"/><rect class="cls-5" x="572.77" y="870.79" width="161" height="4.8"/><rect class="cls-1" x="755.04" y="718.78" width="106.23" height="16"/><rect class="cls-6" x="770.11" y="749.09" width="95.91" height="16"/><rect class="cls-5" x="755.93" y="779.35" width="161" height="4.8"/><rect class="cls-3" x="572.76" y="661.01" width="170.53" height="16"/><rect class="cls-2" x="978.7" y="641.24" width="398.36" height="266.62"/><rect class="cls-1" x="1007.63" y="718.78" width="141.87" height="16"/><rect class="cls-6" x="1022.7" y="749.09" width="121.27" height="16"/><rect class="cls-5" x="1008.52" y="779.35" width="161" height="4.8"/><rect class="cls-1" x="1190.35" y="810.21" width="141.87" height="16"/><rect class="cls-6" x="1205.42" y="840.53" width="121.27" height="16"/><rect class="cls-5" x="1191.24" y="870.79" width="161" height="4.8"/><rect class="cls-1" x="1007.63" y="810.21" width="106.23" height="16"/><rect class="cls-6" x="1022.7" y="840.53" width="95.91" height="16"/><rect class="cls-5" x="1008.52" y="870.79" width="161" height="4.8"/><rect class="cls-1" x="1190.79" y="718.78" width="106.23" height="16"/><rect class="cls-6" x="1205.87" y="749.09" width="95.91" height="16"/><rect class="cls-5" x="1191.69" y="779.35" width="161" height="4.8"/><rect class="cls-3" x="1008.51" y="661.01" width="170.53" height="16"/></g></svg>