<svg xmlns="http://www.w3.org/2000/svg" xmlns:xlink="http://www.w3.org/1999/xlink" viewBox="0 0 444.35 71.06"><defs><style>.cls-1{fill:none;}.cls-2{clip-path:url(#clip-path);}.cls-3{fill:#fff;}</style><clipPath id="clip-path" transform="translate(0 0)"><rect class="cls-1" width="444.35" height="71.06"/></clipPath></defs><title>Asset 2</title><g id="Layer_2" data-name="Layer 2"><g id="Layer_1-2" data-name="Layer 1"><g id="valtimo-logo-white"><g class="cls-2"><polygon class="cls-3" points="57.06 20.78 32.95 63.52 8.83 20.78 0 20.78 27.99 70.31 37.9 70.31 65.89 20.78 57.06 20.78"/><g class="cls-2"><path class="cls-3" d="M125.54,65.36h-.21c-2.26,4.41-4.85,5.7-17.66,5.7h-20c-12.59,0-15.93-5.49-15.93-14.86V52.87c0-11.31,8-12.6,22.5-12.6h13.46c10.87,0,14.75,1.18,17.66,5.92h.21V36.82c0-8.93-5.6-10.12-18.41-10.12H94.86c-10.55,0-12.49,2.59-12.49,6.57V35H74V32.52c0-9.05,5.71-12.71,20.67-12.71h13.25c15.5,0,26.05,2.37,26.05,17.12V70.2h-8.4Zm0-10.56c0-6.78-6-7.64-18.84-7.64H93.89c-10.77,0-13.78,1.51-13.78,7.75v1.51c0,5.49,1.93,7.86,13.35,7.86h11.09c15.18,0,21-1.08,21-7.32Z" transform="translate(0 0)"/><rect class="cls-3" x="149.88" width="8.4" height="70.31"/><path class="cls-3" d="M179.59,27.56H168.72V20.78h10.87V9H188V20.78h33.16v6.78H188V52.22c0,9.26,3.23,12.06,12.38,12.06H203c11.09,0,12.81-2.37,12.81-12.71V47.91h6.78V53.3c0,9.9-1,17.76-19.05,17.76H199c-15.61,0-19.38-7.53-19.38-15.61Z" transform="translate(0 0)"/><rect class="cls-3" x="233.86" y="20.78" width="8.4" height="49.53"/><path class="cls-3" d="M259.16,20.78h7.75v5.81h.22c3.45-5.16,8.29-6.56,16.58-6.56h13.57c7.53,0,13.46,3,16,9.15,3.12-6.68,9.8-9.15,18.41-9.15h10.12c13.46,0,21.64,5.81,21.64,17.12V70.42H355.1V38.12c0-5.71-2.59-11.31-15.83-11.31h-5.92c-15.08,0-17.12,6.24-17.12,14.21V70.31h-8.4V40.38c0-9.59-3-13.46-16.37-13.46h-8.29c-10.66,0-15.61,4.41-15.61,12.38V70.42h-8.4Z" transform="translate(0 0)"/><path class="cls-3" d="M377.49,40.05c0-16.36,11.52-20.13,27.46-20.13H416.9c15.83,0,27.45,3.77,27.45,20.13V50.93c0,16.36-11.52,20.13-27.45,20.13H405c-15.83,0-27.46-3.77-27.46-20.13Zm58.36.54c0-11.52-6.78-13.78-16.47-13.78h-17c-9.69,0-16.47,2.26-16.47,13.78V50.5c0,11.52,6.78,13.78,16.47,13.78h17c9.69,0,16.47-2.26,16.47-13.78Z" transform="translate(0 0)"/></g></g></g></g></g></svg>