<svg width="194" height="122" viewBox="0 0 194 122" fill="none" xmlns="http://www.w3.org/2000/svg">
<path d="M194 0.5H0V121.75H194V0.5Z" fill="white"/>
<g opacity="0.45">
<path d="M194 0.5H0V121.75H194V0.5Z" fill="black"/>
</g>
<path d="M187.746 22.7634H6.25342V99.4874H187.746V22.7634Z" fill="white"/>
<path d="M35.0201 27.1284H10.9419V30.0182H35.0201V27.1284Z" fill="#7C7C7C"/>
<path d="M36.5731 35.0137H10.9419V36.6303H36.5731V35.0137Z" fill="#BABABA"/>
<path d="M27.8331 42.708H13.665V44.3247H27.8331V42.708Z" fill="#353535"/>
<path d="M50.8836 46.9114H11.1035V47.3964H50.8836V46.9114Z" fill="#A8A8A8"/>
<path d="M36.5731 57.4541H10.9419V59.0708H36.5731V57.4541Z" fill="#BABABA"/>
<path d="M35.0202 65.1484H13.665V66.7651H35.0202V65.1484Z" fill="#353535"/>
<path d="M50.8836 69.3518H11.1035V69.8368H50.8836V69.3518Z" fill="#A8A8A8"/>
<path d="M36.5731 78.5686H10.9419V80.1853H36.5731V78.5686Z" fill="#BABABA"/>
<path d="M42.9176 86.2629H13.665V87.8796H42.9176V86.2629Z" fill="#353535"/>
<path d="M50.8836 90.4663H11.1035V90.9513H50.8836V90.4663Z" fill="#A8A8A8"/>
<path d="M124.29 35.0137H98.6592V36.6303H124.29V35.0137Z" fill="#BABABA"/>
<path d="M115.55 42.708H101.382V44.3247H115.55V42.708Z" fill="#353535"/>
<path d="M138.601 46.9114H98.8208V47.3964H138.601V46.9114Z" fill="#A8A8A8"/>
<path d="M124.29 57.4541H98.6592V59.0708H124.29V57.4541Z" fill="#BABABA"/>
<path d="M122.737 65.1484H101.382V66.7651H122.737V65.1484Z" fill="#353535"/>
<path d="M138.601 69.3518H98.8208V69.8368H138.601V69.3518Z" fill="#A8A8A8"/>
<path d="M124.29 78.5686H98.6592V80.1853H124.29V78.5686Z" fill="#BABABA"/>
<path d="M130.635 86.2629H101.382V87.8796H130.635V86.2629Z" fill="#353535"/>
<path d="M138.601 90.4663H98.8208V90.9513H138.601V90.4663Z" fill="#A8A8A8"/>
<path d="M80.8129 35.0137H55.1816V36.6303H80.8129V35.0137Z" fill="#BABABA"/>
<path d="M88.4123 42.708H57.9058V44.3247H88.4123V42.708Z" fill="#353535"/>
<path d="M95.1234 46.9114H55.3433V47.3964H95.1234V46.9114Z" fill="#A8A8A8"/>
<path d="M80.8129 57.4541H55.1816V59.0708H80.8129V57.4541Z" fill="#BABABA"/>
<path d="M77.2118 65.1484H57.9058V66.7651H77.2118V65.1484Z" fill="#353535"/>
<path d="M95.1234 69.3518H55.3433V69.8368H95.1234V69.3518Z" fill="#A8A8A8"/>
<path d="M80.8129 78.5686H55.1816V80.1853H80.8129V78.5686Z" fill="#BABABA"/>
<path d="M83.4471 86.2629H57.9058V87.8796H83.4471V86.2629Z" fill="#353535"/>
<path d="M95.1234 90.4663H55.3433V90.9513H95.1234V90.4663Z" fill="#A8A8A8"/>
<path d="M168.215 35.0137H142.584V36.6303H168.215V35.0137Z" fill="#BABABA"/>
<path d="M175.815 42.708H145.308V44.3247H175.815V42.708Z" fill="#353535"/>
<path d="M182.526 46.9114H142.746V47.3964H182.526V46.9114Z" fill="#A8A8A8"/>
<path d="M168.215 57.4541H142.584V59.0708H168.215V57.4541Z" fill="#BABABA"/>
<path d="M164.614 65.1484H145.308V66.7651H164.614V65.1484Z" fill="#353535"/>
<path d="M182.526 69.3518H142.746V69.8368H182.526V69.3518Z" fill="#A8A8A8"/>
<path d="M168.215 78.5686H142.584V80.1853H168.215V78.5686Z" fill="#BABABA"/>
<path d="M170.849 86.2629H145.308V87.8796H170.849V86.2629Z" fill="#353535"/>
<path d="M182.526 90.4663H142.746V90.9513H182.526V90.4663Z" fill="#A8A8A8"/>
</svg>
