<svg width="194" height="122" viewBox="0 0 194 122" fill="none" xmlns="http://www.w3.org/2000/svg">
<path d="M194 0H0V121.25H194V0Z" fill="white"/>
<g opacity="0.45">
<path d="M194 0H0V121.25H194V0Z" fill="black"/>
</g>
<path d="M143.621 22.2634H50.3794V98.9874H143.621V22.2634Z" fill="white"/>
<path d="M79.1461 26.6284H55.0679V29.5182H79.1461V26.6284Z" fill="#7C7C7C"/>
<path d="M80.6991 34.5137H55.0679V36.1303H80.6991V34.5137Z" fill="#BABABA"/>
<path d="M71.9591 42.208H57.791V43.8247H71.9591V42.208Z" fill="#353535"/>
<path d="M95.0096 46.4114H55.2295V46.8964H95.0096V46.4114Z" fill="#A8A8A8"/>
<path d="M124.939 34.5137H99.3081V36.1303H124.939V34.5137Z" fill="#BABABA"/>
<path d="M132.539 42.208H102.032V43.8247H132.539V42.208Z" fill="#353535"/>
<path d="M139.25 46.4114H99.4697V46.8964H139.25V46.4114Z" fill="#A8A8A8"/>
<path d="M80.6991 56.9541H55.0679V58.5708H80.6991V56.9541Z" fill="#BABABA"/>
<path d="M79.1462 64.6484H57.791V66.2651H79.1462V64.6484Z" fill="#353535"/>
<path d="M95.0096 68.8518H55.2295V69.3368H95.0096V68.8518Z" fill="#A8A8A8"/>
<path d="M124.939 56.9541H99.3081V58.5708H124.939V56.9541Z" fill="#BABABA"/>
<path d="M121.338 64.6484H102.032V66.2651H121.338V64.6484Z" fill="#353535"/>
<path d="M139.25 68.8518H99.4697V69.3368H139.25V68.8518Z" fill="#A8A8A8"/>
<path d="M80.6991 78.0688H55.0679V79.6855H80.6991V78.0688Z" fill="#BABABA"/>
<path d="M87.0436 85.7632H57.791V87.3799H87.0436V85.7632Z" fill="#353535"/>
<path d="M95.0096 89.9666H55.2295V90.4516H95.0096V89.9666Z" fill="#A8A8A8"/>
<path d="M124.939 78.0688H99.3081V79.6855H124.939V78.0688Z" fill="#BABABA"/>
<path d="M127.574 85.7632H102.032V87.3799H127.574V85.7632Z" fill="#353535"/>
<path d="M139.25 89.9666H99.4697V90.4516H139.25V89.9666Z" fill="#A8A8A8"/>
</svg>
