<svg width="194" height="122" viewBox="0 0 194 122" fill="none" xmlns="http://www.w3.org/2000/svg">
<path d="M194 0H0V121.25H194V0Z" fill="white"/>
<g opacity="0.45">
<path d="M194 0H0V121.25H194V0Z" fill="black"/>
</g>
<path d="M122.107 22.2634H71.8931V98.9874H122.107V22.2634Z" fill="white"/>
<path d="M100.66 26.6284H76.5815V29.5182H100.66V26.6284Z" fill="#7C7C7C"/>
<path d="M102.213 34.5137H76.5815V36.1303H102.213V34.5137Z" fill="#BABABA"/>
<path d="M93.4728 42.208H79.3047V43.8247H93.4728V42.208Z" fill="#353535"/>
<path d="M116.523 46.4114H76.7432V46.8964H116.523V46.4114Z" fill="#A8A8A8"/>
<path d="M102.213 56.9541H76.5815V58.5708H102.213V56.9541Z" fill="#BABABA"/>
<path d="M100.66 64.6484H79.3047V66.2651H100.66V64.6484Z" fill="#353535"/>
<path d="M116.523 68.8518H76.7432V69.3368H116.523V68.8518Z" fill="#A8A8A8"/>
<path d="M102.213 78.0688H76.5815V79.6855H102.213V78.0688Z" fill="#BABABA"/>
<path d="M108.557 85.7632H79.3047V87.3799H108.557V85.7632Z" fill="#353535"/>
<path d="M116.523 89.9666H76.7432V90.4516H116.523V89.9666Z" fill="#A8A8A8"/>
</svg>
