<svg width="194" height="122" viewBox="0 0 194 122" fill="none" xmlns="http://www.w3.org/2000/svg">
<path d="M194 0.25H0V121.5H194V0.25Z" fill="white"/>
<g opacity="0.45">
<path d="M194 0.25H0V121.5H194V0.25Z" fill="black"/>
</g>
<path d="M165.428 22.5134H28.5703V99.2374H165.428V22.5134Z" fill="white"/>
<path d="M57.337 26.8784H33.2588V29.7682H57.337V26.8784Z" fill="#7C7C7C"/>
<path d="M58.89 34.7637H33.2588V36.3803H58.89V34.7637Z" fill="#BABABA"/>
<path d="M50.151 42.458H35.9829V44.0747H50.151V42.458Z" fill="#353535"/>
<path d="M73.2005 46.6614H33.4204V47.1464H73.2005V46.6614Z" fill="#A8A8A8"/>
<path d="M58.89 57.2041H33.2588V58.8208H58.89V57.2041Z" fill="#BABABA"/>
<path d="M57.3381 64.8984H35.9829V66.5151H57.3381V64.8984Z" fill="#353535"/>
<path d="M73.2005 69.1018H33.4204V69.5868H73.2005V69.1018Z" fill="#A8A8A8"/>
<path d="M58.89 78.3186H33.2588V79.9353H58.89V78.3186Z" fill="#BABABA"/>
<path d="M65.2355 86.0129H35.9829V87.6296H65.2355V86.0129Z" fill="#353535"/>
<path d="M73.2005 90.2163H33.4204V90.7013H73.2005V90.2163Z" fill="#A8A8A8"/>
<path d="M146.607 34.7637H120.976V36.3803H146.607V34.7637Z" fill="#BABABA"/>
<path d="M137.868 42.458H123.7V44.0747H137.868V42.458Z" fill="#353535"/>
<path d="M160.918 46.6614H121.138V47.1464H160.918V46.6614Z" fill="#A8A8A8"/>
<path d="M146.607 57.2041H120.976V58.8208H146.607V57.2041Z" fill="#BABABA"/>
<path d="M145.055 64.8984H123.7V66.5151H145.055V64.8984Z" fill="#353535"/>
<path d="M160.918 69.1018H121.138V69.5868H160.918V69.1018Z" fill="#A8A8A8"/>
<path d="M146.607 78.3186H120.976V79.9353H146.607V78.3186Z" fill="#BABABA"/>
<path d="M152.953 86.0129H123.7V87.6296H152.953V86.0129Z" fill="#353535"/>
<path d="M160.918 90.2163H121.138V90.7013H160.918V90.2163Z" fill="#A8A8A8"/>
<path d="M103.131 34.7637H77.4995V36.3803H103.131V34.7637Z" fill="#BABABA"/>
<path d="M110.729 42.458H80.2227V44.0747H110.729V42.458Z" fill="#353535"/>
<path d="M117.441 46.6614H77.6611V47.1464H117.441V46.6614Z" fill="#A8A8A8"/>
<path d="M103.131 57.2041H77.4995V58.8208H103.131V57.2041Z" fill="#BABABA"/>
<path d="M99.5287 64.8984H80.2227V66.5151H99.5287V64.8984Z" fill="#353535"/>
<path d="M117.441 69.1018H77.6611V69.5868H117.441V69.1018Z" fill="#A8A8A8"/>
<path d="M103.131 78.3186H77.4995V79.9353H103.131V78.3186Z" fill="#BABABA"/>
<path d="M105.764 86.0129H80.2227V87.6296H105.764V86.0129Z" fill="#353535"/>
<path d="M117.441 90.2163H77.6611V90.7013H117.441V90.2163Z" fill="#A8A8A8"/>
</svg>
