<?xml version="1.0" encoding="UTF-8"?>
<svg id="Layer_2" data-name="Layer 2" xmlns="http://www.w3.org/2000/svg" xmlns:xlink="http://www.w3.org/1999/xlink" viewBox="0 0 456.14 607.88">
  <defs>
    <style>
      .cls-1 {
        fill: url(#linear-gradient-4);
      }

      .cls-1, .cls-2, .cls-3, .cls-4, .cls-5, .cls-6, .cls-7, .cls-8, .cls-9, .cls-10, .cls-11, .cls-12, .cls-13, .cls-14 {
        stroke-width: 0px;
      }

      .cls-1, .cls-3, .cls-15 {
        opacity: .8;
      }

      .cls-2 {
        opacity: .7;
      }

      .cls-2, .cls-6, .cls-14 {
        fill: #fff;
      }

      .cls-3, .cls-5 {
        fill: #0f62fe;
      }

      .cls-4 {
        fill: url(#linear-gradient);
      }

      .cls-4, .cls-5, .cls-6 {
        opacity: .4;
      }

      .cls-7 {
        fill: url(#linear-gradient-2);
      }

      .cls-8 {
        fill: url(#linear-gradient-3);
      }

      .cls-9 {
        fill: #525252;
      }

      .cls-10 {
        fill: #63a1ff;
      }

      .cls-11 {
        fill: #6f6f6f;
      }

      .cls-12 {
        fill: #2e7eff;
      }

      .cls-13 {
        fill: #171717;
      }
    </style>
    <linearGradient id="linear-gradient" x1="90.03" y1="443.4" x2="366.11" y2="443.4" gradientUnits="userSpaceOnUse">
      <stop offset="0" stop-color="#2f81fe"/>
      <stop offset="1" stop-color="#be95ff"/>
    </linearGradient>
    <linearGradient id="linear-gradient-2" x1="0" y1="457.27" x2="456.14" y2="457.27" gradientUnits="userSpaceOnUse">
      <stop offset=".25" stop-color="#525252"/>
      <stop offset=".35" stop-color="#4f4e4e"/>
      <stop offset=".42" stop-color="#454545"/>
      <stop offset=".48" stop-color="#363434"/>
      <stop offset=".52" stop-color="#272525"/>
    </linearGradient>
    <linearGradient id="linear-gradient-3" x1="90.03" y1="409.21" x2="366.11" y2="409.21" gradientUnits="userSpaceOnUse">
      <stop offset=".48" stop-color="#272525"/>
      <stop offset=".52" stop-color="#363434"/>
      <stop offset=".58" stop-color="#454545"/>
      <stop offset=".65" stop-color="#4f4e4e"/>
      <stop offset=".75" stop-color="#525252"/>
    </linearGradient>
    <linearGradient id="linear-gradient-4" x1="228.07" y1="520.1" x2="228.07" y2="10.81" gradientUnits="userSpaceOnUse">
      <stop offset="0" stop-color="#0f62fe"/>
      <stop offset=".21" stop-color="#2c75fe" stop-opacity=".72"/>
      <stop offset=".42" stop-color="#4787fe" stop-opacity=".47"/>
      <stop offset=".61" stop-color="#5c96fe" stop-opacity=".27"/>
      <stop offset=".78" stop-color="#6ba0fe" stop-opacity=".12"/>
      <stop offset=".91" stop-color="#74a6fe" stop-opacity=".03"/>
      <stop offset="1" stop-color="#78a9ff" stop-opacity="0"/>
    </linearGradient>
  </defs>
  <g id="Layer_9" data-name="Layer 9">
    <g>
      <g>
        <path class="cls-14" d="M225.07,524.83l-132.04-76.23c-4-2.31-4-8.09,0-10.4l132.04-76.23c1.86-1.07,4.14-1.07,6,0l132.04,76.23c4,2.31,4,8.09,0,10.4l-132.04,76.23c-1.86,1.07-4.14,1.07-6,0Z"/>
        <path class="cls-4" d="M225.07,524.83l-132.04-76.23c-4-2.31-4-8.09,0-10.4l132.04-76.23c1.86-1.07,4.14-1.07,6,0l132.04,76.23c4,2.31,4,8.09,0,10.4l-132.04,76.23c-1.86,1.07-4.14,1.07-6,0Z"/>
        <path class="cls-7" d="M456.14,443.4c0-4.04-2-8.09-6-10.4l-216.06-124.75c-3.71-2.14-8.29-2.14-12,0L6,433.01c-4,2.31-6,6.35-6,10.4v27.73c0,4.04,2,8.09,6,10.4l216.06,124.74c3.71,2.14,8.29,2.14,12,0l216.06-124.74c4-2.31,6-6.35,6-10.4v-27.73ZM348.14,457.26l-117.05,67.59c-1.86,1.07-4.14,1.07-6,0l-117.08-67.59,117.07-67.59c1.86-1.07,4.14-1.07,6,0l117.07,67.59Z"/>
        <path class="cls-11" d="M222.07,308.26L6,433.01c-8,4.62-8,16.17,0,20.79l216.06,124.75c3.71,2.14,8.29,2.14,12,0l216.06-124.75c8-4.62,8-16.17,0-20.79l-216.06-124.75c-3.71-2.14-8.29-2.14-12,0ZM225.08,524.85l-132.09-76.26c-4-2.31-4-8.09,0-10.4l132.08-76.26c1.86-1.07,4.14-1.07,6,0l132.08,76.26c4,2.31,4,8.09,0,10.4l-132.07,76.26c-1.86,1.07-4.14,1.07-6,0Z"/>
        <path class="cls-8" d="M93.03,448.59l15,8.66,117.04-67.57c1.86-1.07,4.14-1.07,6,0l117.04,67.57,15-8.66c4-2.31,4-8.09,0-10.4l-132.04-76.23c-1.86-1.07-4.14-1.07-6,0l-132.04,76.23c-4,2.31-4,8.09,0,10.4Z"/>
        <g>
          <path class="cls-5" d="M158.2,134.23c0-3.09,2.51-5.6,5.6-5.6s5.6,2.51,5.6,5.6-2.51,5.6-5.6,5.6-5.6-2.51-5.6-5.6Z"/>
          <path class="cls-5" d="M247.91,367.47c0-3.09,2.51-5.6,5.6-5.6s5.6,2.51,5.6,5.6-2.51,5.6-5.6,5.6-5.6-2.51-5.6-5.6Z"/>
          <circle class="cls-5" cx="253.77" cy="198.9" r="11.15"/>
          <circle class="cls-3" cx="276.18" cy="68.99" r="5.84"/>
          <circle class="cls-3" cx="186.07" cy="458.85" r="5.84"/>
          <path class="cls-3" d="M174.56,316.44c0-6.17,5-11.17,11.17-11.17s11.17,5,11.17,11.17-5,11.17-11.17,11.17-11.17-5-11.17-11.17Z"/>
          <path class="cls-3" d="M264.7,264.18c0-6.17,5-11.17,11.17-11.17s11.17,5,11.17,11.17-5,11.17-11.17,11.17-11.17-5-11.17-11.17Z"/>
          <path class="cls-3" d="M275.6,439.89c0-6.17,5-11.17,11.17-11.17s11.17,5,11.17,11.17-5,11.17-11.17,11.17-11.17-5-11.17-11.17Z"/>
          <circle class="cls-3" cx="209.13" cy="264.29" r="6.04"/>
        </g>
        <path class="cls-1" d="M93.45,448.98l131.62,75.86c1.85,1.07,4.14,1.07,5.99,0l132.08-76.1c1.81-1.04,3-2.78,3-4.89V0H89.99v443.59c0,2.63,1.47,4.34,3.46,5.39Z"/>
      </g>
      <g>
        <polygon class="cls-6" points="164.07 139.83 164.07 287.63 356.07 398.48 356.07 250.68 164.07 139.83"/>
        <polygon class="cls-2" points="132.05 158.31 132.05 306.11 324.05 416.96 324.05 269.16 132.05 158.31"/>
        <polygon class="cls-14" points="100.07 176.78 100.07 324.58 292.07 435.44 292.07 287.63 100.07 176.78"/>
        <g>
          <polygon class="cls-13" points="276.07 400.8 276.07 403.11 244.07 384.62 244.07 382.31 276.07 400.8"/>
          <polygon class="cls-13" points="276.07 393.87 276.07 396.18 244.07 377.69 244.07 375.38 276.07 393.87"/>
          <polygon class="cls-13" points="276.07 386.94 276.07 389.25 244.07 370.76 244.07 368.44 276.07 386.94"/>
          <polygon class="cls-13" points="276.07 380.02 276.07 382.33 244.07 363.84 244.07 361.53 276.07 380.02"/>
          <polygon class="cls-13" points="276.07 373.09 276.07 375.4 244.07 356.91 244.07 354.6 276.07 373.09"/>
          <polygon class="cls-13" points="276.07 366.14 276.07 368.45 244.07 349.96 244.07 347.65 276.07 366.14"/>
          <polygon class="cls-13" points="276.07 359.24 276.07 361.55 244.07 343.05 244.07 340.74 276.07 359.24"/>
          <polygon class="cls-10" points="265.47 320.01 265.37 346.05 254.68 339.89 254.77 313.93 265.47 320.01"/>
          <polygon class="cls-12" points="276.03 315.33 276.07 352.13 265.37 346.05 265.48 309.27 276.03 315.33"/>
          <polygon class="cls-9" points="254.73 321.52 254.68 339.89 244.07 333.77 244.07 315.33 254.73 321.52"/>
          <g class="cls-15">
            <path class="cls-12" d="M116.07,276.28s6.76,11.93,14.59,16.4c21.58,12.31,23.7-10.45,37.73-2.76,13.31,7.29,14.99,24.11,26.08,30.51s16.21-5.93,26.17-18.68c4.01-5.14,7.46,4.66,7.46,4.66v73.61s-112.1-64.72-112.1-64.72l.08-39.02Z"/>
            <path class="cls-10" d="M116.07,283.16s11.13,16.73,18.97,21.25c14.59,8.42,25.87-2,37.01,4.44,11.28,6.51,15.91,22.1,27,28.5,6.52,3.77,15.13-8.3,20.12-10.95,4.73-2.52,8.86,4.68,8.86,4.68l.07,48.94-112.1-64.72.07-32.14Z"/>
            <path class="cls-9" d="M116.07,296.03s11.19-16.2,19.28-8.91c13.77,12.39,25.48,41.2,36.62,47.63,11.28,6.51,23.27-13.45,34.35-7.05,11.33,6.54,21.76,26.77,21.76,26.77v25.55s-112.1-64.72-112.1-64.72l.08-19.27Z"/>
          </g>
        </g>
      </g>
    </g>
  </g>
</svg>