<?xml version="1.0" encoding="UTF-8" standalone="no"?>
<svg
   width="80"
   height="80"
   class="iot--empty-state--icon"
   data-testid="EmptyState-icon"
   version="1.1"
   id="svg46"
   sodipodi:docname="error404.svg"
   inkscape:version="1.2.2 (b0a8486, 2022-12-01)"
   xmlns:inkscape="http://www.inkscape.org/namespaces/inkscape"
   xmlns:sodipodi="http://sodipodi.sourceforge.net/DTD/sodipodi-0.dtd"
   xmlns="http://www.w3.org/2000/svg"
   xmlns:svg="http://www.w3.org/2000/svg">
  <sodipodi:namedview
     id="namedview48"
     pagecolor="#ffffff"
     bordercolor="#000000"
     borderopacity="0.25"
     inkscape:showpageshadow="2"
     inkscape:pageopacity="0.0"
     inkscape:pagecheckerboard="0"
     inkscape:deskcolor="#d1d1d1"
     showgrid="false"
     inkscape:zoom="12.8375"
     inkscape:cx="39.961052"
     inkscape:cy="40"
     inkscape:window-width="1390"
     inkscape:window-height="1205"
     inkscape:window-x="0"
     inkscape:window-y="25"
     inkscape:window-maximized="0"
     inkscape:current-layer="svg46" />
  <defs
     id="defs24">
    <linearGradient
       id="a"
       x1="52.286%"
       x2="20.038%"
       y1="35.257%"
       y2="99.807%">
      <stop
         offset="0%"
         stop-color="#D4D4D4"
         id="stop2" />
      <stop
         offset="100%"
         stop-color="#757575"
         id="stop4" />
    </linearGradient>
    <linearGradient
       id="b"
       x1="36.118%"
       x2="58.465%"
       y1="88.863%"
       y2="81.744%">
      <stop
         offset="0%"
         stop-opacity="0"
         id="stop7" />
      <stop
         offset="98%"
         stop-opacity=".37"
         id="stop9" />
    </linearGradient>
    <linearGradient
       id="c"
       x1="-133.356%"
       x2="-127.214%"
       y1="3308.565%"
       y2="3313.015%">
      <stop
         offset="0%"
         stop-opacity="0"
         id="stop12" />
      <stop
         offset="98%"
         stop-opacity=".37"
         id="stop14" />
    </linearGradient>
    <linearGradient
       id="d"
       x1="54.886%"
       x2="54.886%"
       y1="0%"
       y2="158.279%">
      <stop
         offset="0%"
         stop-opacity="0"
         id="stop17" />
      <stop
         offset="47.927%"
         stop-opacity=".345"
         id="stop19" />
      <stop
         offset="100%"
         stop-opacity=".37"
         id="stop21" />
    </linearGradient>
  </defs>
  <g
     fill="none"
     id="g44">
    <path
       fill="url(#emptystate-404-icon_svg__a-227d7484-fdb6-4ac2-a04c-39a62c316be4-227d7484-fdb6-4ac2-a04c-39a62c316be4)"
       d="m.05 22.713 38.714 22.303 38.572-22.303L38.62.409z"
       transform="translate(2.143 27.804)"
       id="path26" />
    <path
       fill="url(#a)"
       d="m.036.402.15 44.607 38.571-22.304z"
       transform="translate(40.714 27.804)"
       id="path28" />
    <path
       fill="url(#b)"
       d="m0 8.358 10.307 5.94 7.55-2.36L13.871.357z"
       transform="translate(2.143 42.152)"
       id="path30" />
    <path
       fill="url(#c)"
       d="M16.064 11.945 12.093.365.357 7.175l12.55 34.148 10.236-4.154z"
       transform="translate(25 29.957)"
       id="path32" />
    <path
       fill="#E6E6E6"
       d="M9.214 22.022 4.93 24.533l11.914 34.514 6.65 3.838c0-.05 0-.108-.057-.165-1.476-4.381-2.86-8.463-4.15-12.246-4.52-13.2-7.853-22.684-10-28.452h-.072m37.143 47.6 4.357-2.519A5448.833 5448.833 0 0 0 45 50.473C37.605 28.819 32.869 15.24 30.793 9.74l-4.286 2.504 19.85 57.377z"
       id="path34" />
    <path
       fill="#A6A6A6"
       d="M26.429 12.244 22.07 9.74l21.322 61.574 2.936-1.693-19.9-57.377M4.907 24.533l-4.364-2.51 12.028 34.57 4.286 2.454-11.95-34.514z"
       id="path36" />
    <path
       fill="#CECECE"
       d="m35.557 69.7 3.572 2.059 5.842-3.228-1.221-3.587-8.207 4.734m-15.336-8.666.329.187-.35-.187m18.571-10.337-1.221-3.544-16.2 9.369c.38 1.148.785 2.343 1.214 3.587l16.207-9.412m-7.536-22.117L30 24.97l-16.279 9.433c.393 1.127.8 2.296 1.222 3.523l16.278-9.37z"
       id="path38" />
    <path
       fill="#FFF"
       d="m32.779 68.2 2.628 1.536 8.329-4.814-2.629-1.5-8.328 4.779m4.728-21.113-2.621-1.507L20.45 53.89c.279.839.564 1.686.857 2.546l16.2-9.326M12.793 31.822c.293.818.586 1.657.878 2.51L30 24.936 27.343 23.4l-14.55 8.422zm-3.607-9.836h.035l-4.335-2.518L.52 21.986l4.365 2.511 4.285-2.51M26.43 7.178 22.064 9.69l4.365 2.518 4.285-2.518-4.285-2.51z"
       id="path40" />
    <path
       fill="url(#d)"
       d="m0 .43 38.729 22.304L77.3.43z"
       transform="translate(2.143 50.043)"
       id="path42" />
  </g>
</svg>
