<?xml version="1.0" encoding="UTF-8" standalone="no"?>
<svg
   width="80"
   height="80"
   class="iot--empty-state--icon"
   data-testid="EmptyState-icon"
   version="1.1"
   id="svg704"
   sodipodi:docname="success.svg"
   inkscape:version="1.2.2 (b0a8486, 2022-12-01)"
   xmlns:inkscape="http://www.inkscape.org/namespaces/inkscape"
   xmlns:sodipodi="http://sodipodi.sourceforge.net/DTD/sodipodi-0.dtd"
   xmlns="http://www.w3.org/2000/svg"
   xmlns:svg="http://www.w3.org/2000/svg">
  <sodipodi:namedview
     id="namedview706"
     pagecolor="#ffffff"
     bordercolor="#000000"
     borderopacity="0.25"
     inkscape:showpageshadow="2"
     inkscape:pageopacity="0.0"
     inkscape:pagecheckerboard="0"
     inkscape:deskcolor="#d1d1d1"
     showgrid="false"
     inkscape:zoom="8.0056958"
     inkscape:cx="10.49253"
     inkscape:cy="39.909086"
     inkscape:window-width="1390"
     inkscape:window-height="1205"
     inkscape:window-x="0"
     inkscape:window-y="25"
     inkscape:window-maximized="0"
     inkscape:current-layer="svg704" />
  <defs
     id="defs686">
    <linearGradient
       id="a"
       x1="-44.831%"
       x2="200.857%"
       y1="572.588%"
       y2="162.5%">
      <stop
         offset="0%"
         stop-color="#7D7D7D"
         id="stop671" />
      <stop
         offset="100%"
         stop-color="#2B2B2B"
         id="stop673" />
    </linearGradient>
    <linearGradient
       id="b"
       x1="45.931%"
       x2="60.758%"
       y1="62.295%"
       y2="17.126%">
      <stop
         offset=".392%"
         stop-color="#969696"
         id="stop676" />
      <stop
         offset="100%"
         stop-color="#484848"
         id="stop678" />
    </linearGradient>
    <linearGradient
       id="c"
       x1="66.95%"
       x2="33.188%"
       y1="33.147%"
       y2="66.447%">
      <stop
         offset="0%"
         stop-color="#5B5B5B"
         id="stop681" />
      <stop
         offset="100%"
         stop-color="#8B8B8B"
         id="stop683" />
    </linearGradient>
  </defs>
  <g
     fill="none"
     id="g702">
    <path
       fill="#666"
       fill-opacity=".129"
       d="M40.52 60.794V43.206L9.093 61.1l32.599 18.443 32.815-18.687L43.604 43.39v17.404c.02.244-.124.458-.432.641-.288.183-.658.275-1.11.275-.412.02-.771-.061-1.08-.244-.288-.184-.442-.407-.462-.672z"
       id="path688" />
    <path
       fill="#000"
       d="m41.167 2.32-.308.184v-.336l-.34.214V1.069h.031c.062.203.206.376.432.519.309.183.668.264 1.08.244.452 0 .822-.092 1.11-.275.247-.142.39-.305.432-.488v59.815c-.018.207-.162.39-.432.551-.288.183-.658.275-1.11.275-.412.02-.771-.061-1.08-.244-.288-.184-.442-.407-.462-.672V30.84l.4-.214.247-.153V2.321z"
       id="path690" />
    <path
       fill="url(#a)"
       d="m8.728 12.733-1.203 3.48 1.203-.671z"
       transform="translate(9)"
       id="path692" />
    <path
       fill="url(#b)"
       d="M7.093 16.458h.062l1.203-3.48-5.983 3.419V44.58l4.718-2.717z"
       transform="translate(9)"
       id="path694" />
    <path
       fill="url(#c)"
       d="m31.52 30.84.4-.214V2.473l.247-.152-.308.183L7.402 16.61v28.153L31.52 30.84m-5.891-15.97 2.498 1.069-10.085 15.756-6.292-2.626 2.499-3.94 3.7 1.527c.021.02.052.02.093 0s.072-.06.093-.122l7.494-11.664z"
       transform="translate(9)"
       id="path696" />
    <path
       fill="#FFF"
       d="M37.127 15.939 34.63 14.87l-7.494 11.664c-.021.061-.052.102-.093.122-.041.02-.072.02-.092 0L23.25 25.13l-2.499 3.939 6.292 2.626 10.085-15.756M40.86 2.168l-.34.214-22.791 13.16-1.203.672 1.203-3.481h-.308v-.153l-6.354 3.664v28.183l.309-.183V16.397l5.983-3.42-1.203 3.481h-.062v28.245h.031l.062-.123.216-.153V16.611L40.859 2.504v-.336M43.172.244c-.288-.183-.658-.264-1.11-.244-.412 0-.771.092-1.08.275-.288.183-.442.397-.462.641 0 .061.01.112.03.153.062.203.206.376.432.519.309.183.668.264 1.08.244.452 0 .822-.092 1.11-.275.247-.142.39-.305.432-.488V.916c.02-.265-.124-.489-.432-.672z"
       id="path698" />
    <path
       fill="#6F6F6F"
       d="M41.167 25.893V2.321l-.246.152v28.153l.246-.153z"
       id="path700" />
  </g>
</svg>
