<?xml version="1.0" encoding="UTF-8" standalone="no"?>
<svg
   width="80"
   height="80"
   class="iot--empty-state--icon"
   data-testid="EmptyState-icon"
   version="1.1"
   id="svg419"
   sodipodi:docname="error.svg"
   inkscape:version="1.2.2 (b0a8486, 2022-12-01)"
   xmlns:inkscape="http://www.inkscape.org/namespaces/inkscape"
   xmlns:sodipodi="http://sodipodi.sourceforge.net/DTD/sodipodi-0.dtd"
   xmlns="http://www.w3.org/2000/svg"
   xmlns:svg="http://www.w3.org/2000/svg">
  <sodipodi:namedview
     id="namedview421"
     pagecolor="#ffffff"
     bordercolor="#000000"
     borderopacity="0.25"
     inkscape:showpageshadow="2"
     inkscape:pageopacity="0.0"
     inkscape:pagecheckerboard="0"
     inkscape:deskcolor="#d1d1d1"
     showgrid="false"
     inkscape:zoom="6.1531589"
     inkscape:cx="16.576851"
     inkscape:cy="39.248133"
     inkscape:window-width="1390"
     inkscape:window-height="1205"
     inkscape:window-x="0"
     inkscape:window-y="25"
     inkscape:window-maximized="0"
     inkscape:current-layer="svg419" />
  <defs
     id="defs393">
    <linearGradient
       id="a"
       x1="40.83%"
       x2="53.752%"
       y1="147.026%"
       y2="5.476%">
      <stop
         offset="0%"
         stop-color="#767676"
         id="stop343" />
      <stop
         offset="100%"
         stop-color="#FFF"
         id="stop345" />
    </linearGradient>
    <linearGradient
       id="b"
       x1="44.373%"
       x2="66.603%"
       y1="97.685%"
       y2="-9.503%">
      <stop
         offset="0%"
         stop-color="#FFF"
         id="stop348" />
      <stop
         offset="100%"
         stop-color="#FFF"
         id="stop350" />
    </linearGradient>
    <linearGradient
       id="c"
       x1="45.733%"
       x2="67.978%"
       y1="91.053%"
       y2="-16.135%">
      <stop
         offset="0%"
         stop-color="#939393"
         id="stop353" />
      <stop
         offset="100%"
         stop-color="#DCDCDC"
         id="stop355" />
    </linearGradient>
    <linearGradient
       id="d"
       x1="-52.354%"
       x2="72.326%"
       y1="92.68%"
       y2="51.331%">
      <stop
         offset="0%"
         stop-opacity=".18"
         id="stop358" />
      <stop
         offset="100%"
         stop-opacity=".05"
         id="stop360" />
    </linearGradient>
    <linearGradient
       id="e"
       x1="55.034%"
       x2="40.155%"
       y1="-24.481%"
       y2="198.063%">
      <stop
         offset="0%"
         stop-opacity=".2"
         id="stop363" />
      <stop
         offset="100%"
         stop-opacity=".5"
         id="stop365" />
    </linearGradient>
    <linearGradient
       id="f"
       x1="39.23%"
       x2="48.628%"
       y1="121.252%"
       y2="57.245%">
      <stop
         offset="0%"
         stop-color="#BEBEBE"
         id="stop368" />
      <stop
         offset="100%"
         stop-color="#D8D8D8"
         id="stop370" />
    </linearGradient>
    <linearGradient
       id="g"
       x1="6.81%"
       x2="49.062%"
       y1="148.311%"
       y2="26.577%">
      <stop
         offset="0%"
         stop-color="#CCC"
         id="stop373" />
      <stop
         offset="100%"
         stop-color="#FFF"
         id="stop375" />
    </linearGradient>
    <linearGradient
       id="h"
       x1="50.263%"
       x2="50.263%"
       y1="63.049%"
       y2="-84.145%">
      <stop
         offset="2%"
         stop-color="#CCC"
         id="stop378" />
      <stop
         offset="100%"
         stop-color="#EEE"
         id="stop380" />
    </linearGradient>
    <linearGradient
       id="i"
       x1="9731.507%"
       x2="9762.569%"
       y1="17393.65%"
       y2="17462.12%">
      <stop
         offset="0%"
         stop-color="#CCC"
         id="stop383" />
      <stop
         offset="100%"
         stop-color="#FFF"
         id="stop385" />
    </linearGradient>
    <linearGradient
       id="j"
       x1="39.379%"
       x2="47.452%"
       y1="-82.789%"
       y2="18.145%">
      <stop
         offset="0%"
         stop-color="#828282"
         id="stop388" />
      <stop
         offset="100%"
         stop-color="#C9C9C9"
         id="stop390" />
    </linearGradient>
  </defs>
  <g
     fill="none"
     id="g417">
    <path
       fill="url(#a)"
       d="M27.333.84A2.98 2.98 0 0 0 26.18.5a5.153 5.153 0 0 0-3.013.833A10.747 10.747 0 0 0 20.2 4 15.147 15.147 0 0 0 18 7.76L.933 51.64a11.32 11.32 0 0 0-.806 3.927 5.06 5.06 0 0 0 .8 2.973c.206.308.466.576.766.793l.134.08c.07.045.144.086.22.12l5.613 3.24a3.093 3.093 0 0 1-.94-.88 5.04 5.04 0 0 1-.8-2.78v-.193c.036-1.347.311-2.677.813-3.927l17.06-43.9A15.333 15.333 0 0 1 26 7.273a10.767 10.767 0 0 1 2.967-2.606A7.74 7.74 0 0 1 30 4.133a4.547 4.547 0 0 1 1.96-.3c.368.03.727.128 1.06.287L27.333.827V.84z"
       transform="translate(14)"
       id="path395" />
    <path
       fill="url(#b)"
       d="M28.667 1.587A3.16 3.16 0 0 0 27.84.78a1.467 1.467 0 0 0-.2-.127l-.113-.06a3.193 3.193 0 0 0-1.06-.286 4.547 4.547 0 0 0-1.96.3 7.74 7.74 0 0 0-1.034.506A10.767 10.767 0 0 0 20.5 3.747a15.333 15.333 0 0 0-2.2 3.82L1.207 51.447A11.167 11.167 0 0 0 .4 55.373v.194c-.016.984.26 1.952.793 2.78.247.357.567.657.94.88.39.212.819.34 1.26.373a5.007 5.007 0 0 0 2.96-.787l34-19.673a10.973 10.973 0 0 0 3.007-2.667 14.433 14.433 0 0 0 2.173-3.793c.5-1.236.766-2.554.787-3.887a5.207 5.207 0 0 0-.773-3.006l-16.88-24.2z"
       transform="translate(19.333 3.333)"
       id="path397" />
    <path
       fill="url(#c)"
       d="M28.827 1.78A3.16 3.16 0 0 0 28 .973a2 2 0 0 0-.2-.126l-.113-.06A3.04 3.04 0 0 0 26.627.5a4.547 4.547 0 0 0-1.96.3 7.74 7.74 0 0 0-1.034.507 10.767 10.767 0 0 0-2.966 2.633 15.333 15.333 0 0 0-2.2 3.82L1.4 51.64a11.34 11.34 0 0 0-.814 3.927v.193c-.01.985.268 1.951.8 2.78a2.827 2.827 0 0 0 2.2 1.253 5.007 5.007 0 0 0 2.96-.786l34.027-19.674a10.973 10.973 0 0 0 3.007-2.666 14.433 14.433 0 0 0 2.173-3.794c.5-1.236.766-2.553.787-3.886A5.207 5.207 0 0 0 45.767 26L28.827 1.78z"
       transform="translate(19.333 3.333)"
       id="path399" />
    <path
       fill="url(#d)"
       d="M2.26 18.607c-2.284 1.333-2.284 2.666 0 4l4.513 2.606a6.42 6.42 0 0 0 6.867 0l29.887-17.32c2.293-1.333 2.293-2.666 0-4l-4.514-2.56a6.433 6.433 0 0 0-6.873 0L2.26 18.607z"
       transform="translate(19.333 53.333)"
       id="path401" />
    <path
       fill="url(#e)"
       d="M5.333 20a1.507 1.507 0 0 0-1.26.06l-.253.1c-.199.09-.392.19-.58.3C1.42 21.507.507 22.92.5 24.713v.834c-.08.567.118 1.138.533 1.533l.08.04 1.554.88c.446.24 1.16.08 2.126-.473 1.778-1.04 2.667-2.45 2.667-4.227v-.827a1.847 1.847 0 0 0-.493-1.533l-.107-.06L5.393 20M.94 3.107v6.786l1.4 9.074 1.593.933 1.907-1.113L7.253 8.053l.014-6.72-1.594-.92L.94 3.107z"
       transform="translate(39.333 17.333)"
       id="path403" />
    <path
       fill="url(#f)"
       d="M.127 2.833V9.62l1.413 9.093L3.447 17.6 4.86 6.867V.08z"
       transform="translate(43.333 18)"
       id="path405" />
    <path
       fill="url(#g)"
       d="M2.113 10.98V4.193l4.72-2.726L5.267.52.547 3.253v6.787z"
       transform="translate(41.333 16.667)"
       id="path407" />
    <path
       fill="url(#h)"
       d="M5.153.333a1.48 1.48 0 0 0-1 0l-.206.06a6.753 6.753 0 0 0-.82.414C1.309 1.856.393 3.27.38 5.053v.834c-.001.223.017.446.053.666.034.353.219.674.507.88.453.24 1.167.087 2.14-.473 1.778-1.04 2.667-2.449 2.667-4.227v-.78A1.813 1.813 0 0 0 5.24.42L5.153.333z"
       transform="translate(42.667 37.333)"
       id="path409" />
    <path
       fill="url(#i)"
       d="m5.28 1.087.207-.06a1.48 1.48 0 0 1 1 0l-1.5-.854A1.513 1.513 0 0 0 3.74.22l-.253.113a6.11 6.11 0 0 0-.58.3C1.093 1.68.173 3.1.167 4.887v.78c0 .777.173 1.284.52 1.52l.086.046 1.534.88a1.227 1.227 0 0 1-.507-.88 3.913 3.913 0 0 1-.053-.666v-.82c0-1.778.915-3.194 2.746-4.247.253-.155.516-.293.787-.413z"
       transform="translate(41.333 36.667)"
       id="path411" />
    <path
       fill="url(#j)"
       d="M2.113.98.52.06l1.4 9.073 1.593.92z"
       transform="translate(41.333 26.667)"
       id="path413" />
    <path
       fill="#A8A8A8"
       d="m38.293 46.947-.193-.087.193.12z"
       id="path415" />
  </g>
</svg>
