<?xml version="1.0" encoding="utf-8"?>
<!-- Generator: Adobe Illustrator 28.2.0, SVG Export Plug-In . SVG Version: 6.00 Build 0)  -->
<svg version="1.1" id="Layer_1" xmlns="http://www.w3.org/2000/svg" xmlns:xlink="http://www.w3.org/1999/xlink" x="0px" y="0px"
	 viewBox="0 0 150 150" style="enable-background:new 0 0 150 150;" xml:space="preserve">
<style type="text/css">
	.st0{fill:none;}
	.st1{fill:url(#SVGID_1_);}
	.st2{fill:url(#SVGID_00000083787985833377467920000010157691229310884736_);}
	.st3{fill:url(#SVGID_00000030473295667072705410000014754021466406676890_);}
	.st4{fill:url(#SVGID_00000068655606388388082300000004568538298443325110_);}
	.st5{opacity:0.3;fill:#A9A9A9;enable-background:new    ;}
	.st6{opacity:0.5;fill:#A9A9A9;enable-background:new    ;}
	.st7{fill:#C8C8C8;}
	.st8{fill:#171717;}
	.st9{fill:#4CA2FF;}
	.st10{fill:#0080FF;}
	.st11{fill:#525252;}
	.st12{opacity:0.8;}
	.st13{fill:#BFC6CD;}
	.st14{fill:#858C96;}
	.st15{fill:url(#SVGID_00000094611937764684927460000013717077708450146432_);}
	.st16{fill:url(#SVGID_00000033334696164491933180000005866137069751618948_);}
</style>
<rect class="st0" width="150" height="150"/>
<g>
	
		<linearGradient id="SVGID_1_" gradientUnits="userSpaceOnUse" x1="-1002.4993" y1="-234.4442" x2="-943.5175" y2="-200.39" gradientTransform="matrix(1.875 0 0 -1.875 1900.5 -304.5)">
		<stop  offset="0" style="stop-color:#525252;stop-opacity:5.000000e-02"/>
		<stop  offset="1" style="stop-color:#000000;stop-opacity:0.1"/>
	</linearGradient>
	<polygon class="st1" points="76.1,145.8 2.4,103.1 76.1,60.6 149.8,103.1 	"/>
	<g>
		<g>
			<g>
				
					<linearGradient id="SVGID_00000061431114832513537910000018246746678466144686_" gradientUnits="userSpaceOnUse" x1="73.7735" y1="1145.6047" x2="147.3656" y2="1145.6047" gradientTransform="matrix(1 0 0 1 0 -1048)">
					<stop  offset="0" style="stop-color:#677078"/>
					<stop  offset="2.278131e-02" style="stop-color:#69727A"/>
					<stop  offset="0.6853" style="stop-color:#A7AEB6"/>
					<stop  offset="1" style="stop-color:#BFC6CD"/>
				</linearGradient>
				<polygon style="fill:url(#SVGID_00000061431114832513537910000018246746678466144686_);" points="147.4,72.9 147.4,80 
					73.8,122.3 73.8,115.3 				"/>
			</g>
			<g>
				
					<linearGradient id="SVGID_00000013162231546672714320000013470864492028084663_" gradientUnits="userSpaceOnUse" x1="0.1813" y1="1120.8015" x2="147.3656" y2="1120.8015" gradientTransform="matrix(1 0 0 1 0 -1048)">
					<stop  offset="0" style="stop-color:#677078"/>
					<stop  offset="2.278131e-02" style="stop-color:#69727A"/>
					<stop  offset="0.6853" style="stop-color:#A7AEB6"/>
					<stop  offset="1" style="stop-color:#BFC6CD"/>
				</linearGradient>
				<polygon style="fill:url(#SVGID_00000013162231546672714320000013470864492028084663_);" points="147.4,72.9 73.8,115.3 
					0.2,72.9 73.8,30.3 				"/>
			</g>
			<g>
				
					<linearGradient id="SVGID_00000047045128721909456820000001951148028385519013_" gradientUnits="userSpaceOnUse" x1="0.1813" y1="1145.6047" x2="73.7735" y2="1145.6047" gradientTransform="matrix(1 0 0 1 0 -1048)">
					<stop  offset="0" style="stop-color:#677078"/>
					<stop  offset="2.278131e-02" style="stop-color:#69727A"/>
					<stop  offset="0.6853" style="stop-color:#A7AEB6"/>
					<stop  offset="1" style="stop-color:#BFC6CD"/>
				</linearGradient>
				<polygon style="fill:url(#SVGID_00000047045128721909456820000001951148028385519013_);" points="73.8,115.3 73.8,122.3 0.2,80 
					0.2,72.9 				"/>
			</g>
		</g>
		<g>
			<polygon class="st5" points="66.3,17.3 66.3,51.6 111,77.5 111,43 			"/>
			<polygon class="st6" points="58.8,21.6 58.8,56 103.5,81.7 103.5,47.4 			"/>
			<polygon class="st7" points="51.3,25.9 51.3,60.3 96,86.1 96,51.6 			"/>
			<g>
				<g>
					<polygon class="st8" points="92.3,78 92.3,78.6 84.8,74.2 84.8,73.7 					"/>
				</g>
				<g>
					<polygon class="st8" points="92.3,76.4 92.3,77 84.8,72.6 84.8,72.1 					"/>
				</g>
				<g>
					<polygon class="st8" points="92.3,74.8 92.3,75.3 84.8,71 84.8,70.4 					"/>
				</g>
				<g>
					<polygon class="st8" points="92.3,73.1 92.3,73.7 84.8,69.5 84.8,68.9 					"/>
				</g>
				<g>
					<polygon class="st8" points="92.3,71.5 92.3,72.1 84.8,67.8 84.8,67.3 					"/>
				</g>
				<g>
					<polygon class="st8" points="92.3,70 92.3,70.4 84.8,66.2 84.8,65.6 					"/>
				</g>
				<g>
					<polygon class="st8" points="92.3,68.4 92.3,68.9 84.8,64.6 84.8,64 					"/>
				</g>
				<g>
					<polygon class="st9" points="89.9,59.2 89.9,65.2 87.3,63.9 87.4,57.7 					"/>
				</g>
				<g>
					<polygon class="st10" points="92.3,58.2 92.3,66.7 89.9,65.2 89.9,56.7 					"/>
				</g>
				<g>
					<polygon class="st11" points="87.4,59.5 87.3,63.9 84.8,62.4 84.8,58.2 					"/>
				</g>
				<g class="st12">
					<path class="st10" d="M55.1,49c0,0,1.6,2.7,3.4,3.8c5,2.9,5.5-2.5,8.7-0.7c3.1,1.6,3.5,5.6,6.1,7.1c2.5,1.5,3.8-1.4,6.1-4.4
						c1-1.2,1.8,1.1,1.8,1.1v17.2l-26-15L55.1,49z"/>
					<path class="st9" d="M55.1,50.7c0,0,2.6,4,4.4,4.9c3.4,1.9,6-0.4,8.6,1.1c2.6,1.5,3.7,5.2,6.3,6.7c1.5,0.8,3.5-1.9,4.6-2.6
						c1.1-0.5,2,1.1,2,1.1v11.4l-26-15L55.1,50.7z"/>
					<path class="st11" d="M55.1,53.7c0,0,2.6-3.8,4.5-2c3.3,2.9,5.9,9.5,8.6,11c2.6,1.5,5.5-3.1,8-1.6c2.6,1.5,5,6.3,5,6.3v6
						l-26-15L55.1,53.7z"/>
				</g>
			</g>
		</g>
		<g>
			<g>
				<path class="st13" d="M34.7,18.8l2.6-1.5c-0.7,0.4-1.2,0.8-1.8,1.4c-5,5.3-3.3,17.6,3.8,27.4c2.7,3.8,5.9,6.7,9,8.4
					c0.8,0.4,1.6,0.8,2.3,1.2c3.3,1.4,6.4,1.4,8.9,0l-2.6,1.5c-2.5,1.4-5.6,1.4-8.9,0c-0.8-0.3-1.6-0.7-2.3-1.2
					c-3.1-1.8-6.3-4.6-9-8.4c-7.1-9.8-8.9-22.1-3.8-27.4C33.4,19.6,34,19.2,34.7,18.8z"/>
				<path class="st13" d="M56.2,26.9c8.2,11.3,10.1,25.3,4.4,31.3c-3,3.1-7.4,3.5-12.1,1.6c-1-0.4-1.8-0.8-2.7-1.4
					c-2.9-1.6-5.7-4.1-8.4-7.2L20.5,69.1l-3.7-5l16.8-17.7c-6.7-10.8-7.9-23.2-2.6-28.8c3.5-3.7,9.1-3.5,14.9-0.3
					C49.4,19.3,53.1,22.6,56.2,26.9z M58.6,55.8c5-5.3,3.3-17.6-3.8-27.4c-2.7-3.8-5.9-6.7-9-8.4c-4.9-2.9-9.8-3-12.9,0.3
					c-5,5.3-3.3,17.6,3.8,27.4c2.7,3.8,5.9,6.7,9,8.4c0.8,0.4,1.6,0.8,2.3,1.2C52.2,59,56.1,58.6,58.6,55.8"/>
				<path class="st13" d="M58.8,25.4c-3.1-4.4-6.7-7.6-10.4-9.7c-4.8-2.7-9.4-3.3-12.8-1.2L33,16c3.4-2,8.2-1.5,12.8,1.2
					c3.5,2,7.2,5.3,10.4,9.7c8.2,11.3,10.1,25.3,4.4,31.3c-0.5,0.7-1.2,1.2-2,1.6l2.6-1.5c0.7-0.4,1.4-1,2-1.6
					C68.9,50.8,66.8,36.8,58.8,25.4z"/>
				<g>
					<polygon class="st14" points="37.2,51.5 39.8,50 23.2,67.7 20.6,69.2 					"/>
					<path class="st13" d="M56.2,26.9c8.2,11.3,10.1,25.3,4.4,31.3c-3,3.1-7.4,3.5-12.1,1.6c-1-0.4-1.8-0.8-2.7-1.4
						c-2.9-1.6-5.7-4.1-8.4-7.2L20.5,69.1l-3.7-5l16.8-17.7c-6.7-10.8-7.9-23.2-2.6-28.8c3.5-3.7,9.1-3.5,14.9-0.3
						C49.4,19.3,53.1,22.6,56.2,26.9z M58.6,55.8c5-5.3,3.3-17.6-3.8-27.4c-2.7-3.8-5.9-6.7-9-8.4c-4.9-2.9-9.8-3-12.9,0.3
						c-5,5.3-3.3,17.6,3.8,27.4c2.7,3.8,5.9,6.7,9,8.4c0.8,0.4,1.6,0.8,2.3,1.2C52.2,59,56.1,58.6,58.6,55.8"/>
					
						<linearGradient id="SVGID_00000123431785148354787710000005038225346630815163_" gradientUnits="userSpaceOnUse" x1="33.0252" y1="1084.6135" x2="66.4014" y2="1084.6135" gradientTransform="matrix(1 0 0 1 0 -1048)">
						<stop  offset="0" style="stop-color:#BFC6CD"/>
						<stop  offset="0.582" style="stop-color:#E7EAEC"/>
						<stop  offset="1" style="stop-color:#FFFFFF"/>
					</linearGradient>
					<path style="fill:url(#SVGID_00000123431785148354787710000005038225346630815163_);" d="M58.8,25.4c-3.1-4.4-6.7-7.6-10.4-9.7
						c-4.8-2.7-9.4-3.3-12.8-1.2L33,16c3.4-2,8.2-1.5,12.8,1.2c3.5,2,7.2,5.3,10.4,9.7c8.2,11.3,10.1,25.3,4.4,31.3
						c-0.5,0.7-1.2,1.2-2,1.6l2.6-1.5c0.7-0.4,1.4-1,2-1.6C68.9,50.8,66.8,36.8,58.8,25.4z"/>
				</g>
				<g>
					
						<linearGradient id="SVGID_00000030464041306441046820000011260631351121949629_" gradientUnits="userSpaceOnUse" x1="30.0094" y1="1085.9036" x2="61.5257" y2="1085.9036" gradientTransform="matrix(1 0 0 1 0 -1048)">
						<stop  offset="0" style="stop-color:#ABDCF7"/>
						<stop  offset="0.4515" style="stop-color:#60A5FB;stop-opacity:0.9368"/>
						<stop  offset="1" style="stop-color:#005EFF;stop-opacity:0.86"/>
					</linearGradient>
					<path style="fill:url(#SVGID_00000030464041306441046820000011260631351121949629_);" d="M45.8,19.9c3.1,1.8,6.3,4.6,9,8.4
						c7.1,9.8,8.9,22.1,3.8,27.4c-2.6,2.7-6.4,3.1-10.6,1.4c-0.8-0.3-1.6-0.7-2.3-1.2c-3.1-1.8-6.3-4.6-9-8.4
						c-7.1-9.8-8.9-22.1-3.8-27.4C36,16.9,40.8,17,45.8,19.9z"/>
				</g>
			</g>
		</g>
	</g>
</g>
</svg>
