<?xml version="1.0" encoding="utf-8"?>
<!-- Generator: Adobe Illustrator 28.2.0, SVG Export Plug-In . SVG Version: 6.00 Build 0)  -->
<svg version="1.1" id="Layer_1" xmlns="http://www.w3.org/2000/svg" xmlns:xlink="http://www.w3.org/1999/xlink" x="0px" y="0px"
	 viewBox="0 0 150 150" style="enable-background:new 0 0 150 150;" xml:space="preserve">
<style type="text/css">
	.st0{fill:none;}
	.st1{fill:url(#SVGID_1_);}
	.st2{fill:url(#SVGID_00000098917155957095723640000001100688215222257833_);}
	.st3{fill:url(#SVGID_00000083782795235490580480000017205090955367162250_);}
	.st4{fill:url(#SVGID_00000099624740086032114230000010521515724011093147_);}
	.st5{fill:#C5C5C5;}
	.st6{fill:#A7A7A7;}
	.st7{fill:#F3F3F3;}
	.st8{fill:#DFDFDF;}
	.st9{fill:#6F6F6F;}
	.st10{fill:#838383;}
	.st11{fill:#FFFFFF;}
	.st12{fill:#0062FD;}
	.st13{fill:#89BEFD;}
	.st14{opacity:0.8;}
	.st15{fill:#0080FF;}
	.st16{fill:#4CA2FF;}
	.st17{fill:#525252;}
	.st18{fill:#296487;}
	.st19{fill:#171717;}
	.st20{fill:#898989;}
	.st21{fill:#BFC6CD;}
	.st22{fill:#858C96;}
	.st23{fill:url(#SVGID_00000120533801970471470100000002033703835146487945_);}
	.st24{fill:url(#SVGID_00000178173395388693594730000006052782416107967645_);}
</style>
<rect class="st0" width="150" height="150"/>
<g>
	
		<linearGradient id="SVGID_1_" gradientUnits="userSpaceOnUse" x1="-1002.3394" y1="-237.4529" x2="-943.8958" y2="-203.7095" gradientTransform="matrix(1.875 0 0 -1.875 1900.5 -304.5)">
		<stop  offset="0" style="stop-color:#525252;stop-opacity:5.000000e-02"/>
		<stop  offset="1" style="stop-color:#000000;stop-opacity:0.1"/>
	</linearGradient>
	<polygon class="st1" points="75.9,151.3 2.8,109.1 75.9,66.9 148.9,109.1 	"/>
</g>
<g>
	<g>
		<g>
			
				<linearGradient id="SVGID_00000183223291787664931340000010061092448712479386_" gradientUnits="userSpaceOnUse" x1="73.5901" y1="103.634" x2="146.1216" y2="103.634">
				<stop  offset="0" style="stop-color:#677078"/>
				<stop  offset="2.278131e-02" style="stop-color:#69727A"/>
				<stop  offset="0.6853" style="stop-color:#A7AEB6"/>
				<stop  offset="1" style="stop-color:#BFC6CD"/>
			</linearGradient>
			<polygon style="fill:url(#SVGID_00000183223291787664931340000010061092448712479386_);" points="146.1,79.2 146.1,86.2 
				73.6,128.1 73.6,121.1 			"/>
		</g>
		<g>
			
				<linearGradient id="SVGID_00000177465786029855077400000014739845748863777158_" gradientUnits="userSpaceOnUse" x1="1.0587" y1="79.2064" x2="146.1216" y2="79.2064">
				<stop  offset="0" style="stop-color:#677078"/>
				<stop  offset="2.278131e-02" style="stop-color:#69727A"/>
				<stop  offset="0.6853" style="stop-color:#A7AEB6"/>
				<stop  offset="1" style="stop-color:#BFC6CD"/>
			</linearGradient>
			<polygon style="fill:url(#SVGID_00000177465786029855077400000014739845748863777158_);" points="146.1,79.2 73.6,121.1 
				1.1,79.2 73.6,37.3 			"/>
		</g>
		<g>
			
				<linearGradient id="SVGID_00000079457721674973487440000005649066635372745663_" gradientUnits="userSpaceOnUse" x1="1.0587" y1="103.634" x2="73.5901" y2="103.634">
				<stop  offset="0" style="stop-color:#677078"/>
				<stop  offset="2.278131e-02" style="stop-color:#69727A"/>
				<stop  offset="0.6853" style="stop-color:#A7AEB6"/>
				<stop  offset="1" style="stop-color:#BFC6CD"/>
			</linearGradient>
			<polygon style="fill:url(#SVGID_00000079457721674973487440000005649066635372745663_);" points="73.6,121.1 73.6,128.1 
				1.1,86.2 1.1,79.2 			"/>
		</g>
	</g>
	<g>
		<g>
			
				<image style="overflow:visible;" width="148" height="116" xlink:href="269789F8F0C81BC3.png"  transform="matrix(1 0 0 1 13 18)">
			</image>
		</g>
		<g>
			<g>
				<g>
					<polygon class="st5" points="71.3,73.5 71.3,76 84.7,83.7 84.7,81.2 					"/>
					<polygon class="st6" points="93.1,78.8 84.7,83.7 84.7,81.2 91.3,77.3 91.3,72.2 93.1,72.9 					"/>
					<polygon class="st7" points="78,64.5 78,69.6 91.3,77.3 91.3,72.2 					"/>
				</g>
				<g>
					<path class="st5" d="M57.6,42.8l-2,1.2l0,5.4c0,1.4,0.8,2.8,2,3.5l56.2,32.4c0.5,0.3,1,0.2,1.4,0l2-1.1c0,0,0,0,0,0l0,0l0,0
						c0.4-0.2,0.7-0.6,0.7-1.2l0-5.6L57.6,42.8z"/>
					<path class="st7" d="M55.6,49.3c0,1.4,0.8,2.8,2,3.5l56.2,32.4c0.9,0.5,1.8-0.1,1.8-1.2l0-5.5l-60-34.6L55.6,49.3z"/>
				</g>
				<polygon class="st8" points="71.3,73.5 78,69.6 91.3,77.3 84.7,81.2 				"/>
				<g>
					<path class="st9" d="M117.8,36.2c0-1.9-0.4-2.8-2.2-3.9L59.8,0.2c-0.5-0.3-0.9-0.2-1.3,0l-2.2,1.3l0,0
						c-0.4,0.2-0.7,0.6-0.7,1.2l0,41.3l60,34.6l2.2-1.3L117.8,36.2z"/>
					<path d="M113.8,33.9L57.6,1.5c-0.9-0.5-2,0.1-2,1.2l0,41.3l60,34.6l0-41.1C115.6,35.7,115.1,34.6,113.8,33.9z"/>
				</g>
				<polygon class="st10" points="57.6,4 57.6,42.5 113.4,74.7 113.4,36.2 				"/>
			</g>
			<g>
				<polygon class="st11" points="59.5,6.5 59.5,22.9 80.8,35.2 80.8,18.8 				"/>
				<g>
					<path class="st12" d="M62.4,19.7c0.2,0.1,0.3,0.4,0.3,0.6c0,0.1,0,0.1,0,0.2l1.9,3.1c0.1,0,0.1,0,0.2,0l2.1-8.4
						c-0.1-0.1-0.1-0.2-0.1-0.3c0-0.2,0.2-0.3,0.3-0.2c0.2,0.1,0.3,0.4,0.3,0.6c0,0.1,0,0.2-0.1,0.2l2.1,8.1c0,0,0.1,0,0.1,0.1
						l1.9-3.3c0-0.1-0.1-0.2-0.1-0.3c0-0.2,0.2-0.3,0.3-0.2c0.2,0.1,0.3,0.4,0.3,0.6c0,0.1,0,0.2-0.1,0.2l2.1,8.3c0,0,0,0,0,0
						c0,0,0,0,0.1,0l1.9-3.5c-0.1-0.1-0.1-0.2-0.1-0.4c0-0.2,0.2-0.3,0.3-0.2c0.2,0.1,0.3,0.4,0.3,0.6c0,0.2-0.2,0.3-0.4,0.2
						l-1.9,3.5c0.1,0.1,0.1,0.2,0.1,0.3c0,0.2-0.2,0.3-0.3,0.2c-0.2-0.1-0.3-0.4-0.3-0.6c0-0.1,0-0.2,0.1-0.2l-2.1-8.3
						c0,0-0.1,0-0.1-0.1l-1.9,3.3c0,0.1,0.1,0.2,0.1,0.3c0,0.2-0.2,0.3-0.3,0.2c-0.2-0.1-0.3-0.4-0.3-0.6c0-0.1,0-0.2,0.1-0.2
						l-2.1-8.1l-2.1,8.4c0.1,0.1,0.1,0.3,0.1,0.4c0,0.2-0.2,0.3-0.3,0.2c-0.2-0.1-0.3-0.4-0.3-0.6c0,0,0-0.1,0-0.1l-1.9-3.1
						c0,0-0.1,0-0.1,0c-0.2-0.1-0.3-0.4-0.3-0.6C62,19.7,62.2,19.6,62.4,19.7L62.4,19.7z"/>
					<path class="st13" d="M62.5,14.1C62.5,14.1,62.5,14.1,62.5,14.1l2.2-3.7c0,0,0.1,0,0.1,0c0,0,0.1,0.1,0.1,0.2L67.1,22
						c0.1,0,0.1,0.1,0.2,0.2l1.8-1c0-0.1,0-0.1,0-0.2c0-0.2,0.2-0.3,0.3-0.2c0.2,0.1,0.3,0.4,0.3,0.6c0,0,0,0.1,0,0.1l1.8,3.1
						c0,0,0.1,0,0.2,0c0,0,0,0,0.1,0l2-3.4c-0.1-0.1-0.1-0.2-0.1-0.3c0-0.2,0.2-0.3,0.3-0.2c0.2,0.1,0.3,0.4,0.3,0.6
						c0,0.1-0.1,0.2-0.2,0.2l2,8.4c0.2,0.1,0.3,0.4,0.3,0.6c0,0.2-0.2,0.3-0.3,0.2c-0.2-0.1-0.3-0.4-0.3-0.6c0-0.1,0.1-0.2,0.1-0.2
						l-2-8.4c0,0,0,0,0,0l-2,3.4c0.1,0.1,0.1,0.2,0.1,0.3c0,0.2-0.2,0.3-0.3,0.2c-0.2-0.1-0.3-0.4-0.3-0.6c0-0.1,0-0.1,0-0.2
						l-1.8-3.1c-0.1,0-0.1,0-0.2,0c-0.1,0-0.1-0.1-0.2-0.2l-1.8,1c0,0.1,0,0.1,0,0.2c0,0.2-0.2,0.3-0.3,0.2
						c-0.2-0.1-0.3-0.4-0.3-0.6c0-0.1,0-0.2,0.1-0.2l-2.1-11.1l-2,3.5c0.1,0.1,0.1,0.2,0.1,0.3c0,0.2-0.2,0.3-0.3,0.2
						c-0.2-0.1-0.3-0.4-0.3-0.6C62.1,14.1,62.3,14,62.5,14.1L62.5,14.1z"/>
				</g>
			</g>
			<g>
				<polygon class="st11" points="59.5,25.4 59.5,41.8 80.8,54.1 80.8,37.7 				"/>
				<g class="st14">
					<path class="st15" d="M60.7,34.4c0,0,1.2,2.1,2.5,2.8c3.7,2.1,4.1-1.8,6.5-0.5c2.3,1.3,2.6,4.1,4.5,5.2c1.9,1.1,2.8-1,4.5-3.2
						c0.7-0.9,1.3,0.8,1.3,0.8v12.7L60.7,41.1L60.7,34.4z"/>
					<path class="st16" d="M60.7,35.5c0,0,1.9,2.9,3.3,3.7c2.5,1.4,4.4-0.3,6.4,0.8c1.9,1.1,2.7,3.8,4.6,4.9
						c1.1,0.6,2.6-1.4,3.5-1.9c0.8-0.4,1.5,0.8,1.5,0.8l0,8.4L60.7,41.1L60.7,35.5z"/>
					<path class="st17" d="M60.7,37.8c0,0,1.9-2.8,3.3-1.5c2.4,2.1,4.4,7.1,6.3,8.2c1.9,1.1,4-2.3,5.9-1.2c1.9,1.1,3.7,4.6,3.7,4.6
						v4.4L60.7,41.1L60.7,37.8z"/>
				</g>
			</g>
			<g>
				<polygon class="st11" points="83,20.1 83,55.6 111.8,72.2 111.8,36.8 				"/>
				<g>
					<g>
						<path class="st12" d="M91.8,36.1c0,0.7-0.3,1.3-0.7,1.5l1.7,3c0,0,0,0,0,0c0.9-0.5,1.4-1.6,1.4-3.1L91.8,36.1z"/>
						<path class="st18" d="M89.9,40.5C91,41,92,41,92.8,40.6l0,0C92,41,91,41,89.9,40.5z"/>
					</g>
					<path class="st12" d="M87.1,33.4c0,0.7,0.3,1.6,0.7,2.3c0.4,0.7,1,1.4,1.7,1.8l0,2.8c-1.3-0.8-2.5-2.1-3.4-3.6
						c-0.9-1.5-1.4-3.2-1.4-4.7L87.1,33.4L87.1,33.4z"/>
					<path class="st13" d="M91.1,37.6L91.1,37.6c-0.4,0.2-1,0.2-1.7-0.2l0,2.8c1.3,0.8,2.5,0.8,3.4,0.4h0L91.1,37.6z"/>
					<path class="st13" d="M89.4,29.2c-2.7-1.5-4.8-0.3-4.8,2.8l2.5,1.4c0-1.5,1.1-2.1,2.3-1.3c1.3,0.7,2.3,2.6,2.3,4l2.5,1.4
						C94.2,34.5,92.1,30.7,89.4,29.2L89.4,29.2z"/>
					<path class="st12" d="M89.4,50.8l-3.6-2.1c0,2.3,1.6,5.1,3.6,6.3c1,0.6,1.9,0.6,2.6,0.3L89.4,50.8L89.4,50.8z"/>
					<path class="st13" d="M89.4,46.6c-2-1.2-3.6-0.2-3.7,2.1l3.6,2.1l2.6-1.5C91.3,48.2,90.4,47.2,89.4,46.6L89.4,46.6z"/>
					<path class="st19" d="M94.1,53.5c0,3-2.1,4.2-4.8,2.7c-2.6-1.5-4.7-5.2-4.7-8.2c0-3,2.1-4.2,4.8-2.7
						C92,46.8,94.2,50.5,94.1,53.5L94.1,53.5z M93.7,53.3c0-2.7-1.9-6-4.3-7.4c-2.4-1.4-4.3-0.3-4.3,2.5c0,2.7,1.9,6,4.3,7.4
						C91.8,57.1,93.7,56,93.7,53.3L93.7,53.3z"/>
					<path class="st20" d="M92,49.3l-2.6,1.5l-3.6-2.1l3.6,2.1l2.6,4.5h0c0.7-0.4,1.1-1.2,1.1-2.3C93,51.7,92.6,50.4,92,49.3
						L92,49.3z"/>
					<path class="st13" d="M105,59.8l0-4.2c-2-1.2-3.6-0.2-3.7,2.1c0,2.3,1.6,5.1,3.6,6.3c1,0.6,1.9,0.6,2.6,0.3L105,59.8z"/>
					<path class="st20" d="M107.5,58.3c-0.7-1.1-1.6-2.1-2.6-2.7l0,4.2l3.6,2.1C108.6,60.7,108.2,59.4,107.5,58.3z"/>
					<path class="st12" d="M105,59.8l2.6,4.4c0.7-0.4,1.1-1.2,1.1-2.3L105,59.8L105,59.8z"/>
					<path class="st19" d="M109.7,62.5c0,3-2.1,4.2-4.8,2.7c-2.6-1.5-4.7-5.2-4.7-8.2c0-3,2.1-4.2,4.8-2.7
						C107.6,55.8,109.7,59.5,109.7,62.5z M109.3,62.2c0-2.7-1.9-6-4.3-7.4c-2.4-1.4-4.3-0.3-4.3,2.5c0,2.7,1.9,6,4.3,7.4
						C107.3,66.1,109.2,65,109.3,62.2z"/>
					<path class="st13" d="M100.2,40.9l2.5,1.4c0-0.7,0.3-1.3,0.7-1.5c0.4-0.2,1-0.2,1.7,0.2l0-2.8
						C102.3,36.7,100.2,37.9,100.2,40.9L100.2,40.9z"/>
					<path class="st12" d="M103.3,44.7c-0.4-0.7-0.7-1.5-0.7-2.3l-2.5-1.4c0,1.5,0.5,3.2,1.4,4.7s2.1,2.8,3.4,3.6l0-2.8
						C104.3,46,103.7,45.4,103.3,44.7L103.3,44.7z"/>
					<path class="st12" d="M108.4,41.8c-0.9-1.5-2.1-2.8-3.4-3.6l0,2.8c1.3,0.7,2.3,2.6,2.3,4c0,0.7-0.3,1.3-0.7,1.5l0.9,1.5
						l0.9,1.5c0.9-0.5,1.4-1.6,1.4-3.1C109.8,45,109.3,43.3,108.4,41.8L108.4,41.8z"/>
					<path class="st13" d="M107.5,48.1l-0.9-1.5h0c-0.4,0.2-1,0.2-1.6-0.2l0,2.8c1.3,0.8,2.5,0.8,3.4,0.4h0L107.5,48.1L107.5,48.1z"
						/>
				</g>
			</g>
		</g>
	</g>
	<g>
		<g>
			<path class="st21" d="M47.2,36.7l2.5-1.5c-0.6,0.4-1.2,0.8-1.7,1.4c-4.9,5.2-3.3,17.3,3.7,27c2.7,3.7,5.8,6.6,8.9,8.4
				c0.8,0.4,1.6,0.8,2.3,1.1c3.2,1.3,6.3,1.4,8.7,0l-2.5,1.5c-2.4,1.4-5.5,1.3-8.7,0c-0.8-0.3-1.5-0.7-2.3-1.1
				c-3.1-1.8-6.2-4.6-8.9-8.4c-7-9.7-8.7-21.8-3.7-27C46,37.5,46.6,37,47.2,36.7z"/>
			<path class="st21" d="M68.4,44.8c8,11.1,9.9,25,4.3,31c-2.9,3.1-7.3,3.5-11.9,1.6C59.9,77,59,76.5,58.1,76
				c-2.8-1.6-5.7-4-8.3-7.2L33.4,86.3l-3.6-5l16.5-17.5c-6.5-10.6-7.8-22.8-2.6-28.4c3.5-3.7,9-3.5,14.6-0.3
				C61.8,37.2,65.3,40.5,68.4,44.8z M70.9,73.2c4.9-5.2,3.3-17.3-3.7-27c-2.7-3.7-5.8-6.6-8.9-8.4c-4.9-2.8-9.7-3-12.8,0.3
				c-4.9,5.2-3.3,17.3,3.7,27c2.7,3.7,5.8,6.6,8.9,8.4c0.8,0.4,1.6,0.8,2.3,1.1C64.5,76.2,68.3,75.9,70.9,73.2"/>
			<path class="st21" d="M71,43.3c-3.1-4.3-6.6-7.5-10.2-9.6c-4.6-2.7-9.2-3.2-12.6-1.3l-2.5,1.5c3.4-2,8-1.4,12.6,1.3
				c3.5,2,7.1,5.3,10.2,9.6c8,11.1,9.9,25,4.3,31c-0.6,0.6-1.2,1.1-1.9,1.6l2.5-1.5c0.7-0.4,1.4-0.9,1.9-1.6
				C80.9,68.3,79,54.4,71,43.3z"/>
			<g>
				<polygon class="st22" points="49.9,68.9 52.4,67.4 35.9,84.9 33.4,86.3 				"/>
				<path class="st21" d="M68.4,44.8c8,11.1,9.9,25,4.3,31c-2.9,3.1-7.3,3.5-11.9,1.6C59.9,77,59,76.5,58.1,76
					c-2.8-1.6-5.7-4-8.3-7.2L33.4,86.3l-3.6-5l16.5-17.5c-6.5-10.6-7.8-22.8-2.6-28.4c3.5-3.7,9-3.5,14.6-0.3
					C61.8,37.2,65.3,40.5,68.4,44.8z M70.9,73.2c4.9-5.2,3.3-17.3-3.7-27c-2.7-3.7-5.8-6.6-8.9-8.4c-4.9-2.8-9.7-3-12.8,0.3
					c-4.9,5.2-3.3,17.3,3.7,27c2.7,3.7,5.8,6.6,8.9,8.4c0.8,0.4,1.6,0.8,2.3,1.1C64.5,76.2,68.3,75.9,70.9,73.2"/>
				
					<linearGradient id="SVGID_00000138549297026543750250000018333259459203523727_" gradientUnits="userSpaceOnUse" x1="45.6326" y1="54.274" x2="78.5104" y2="54.274">
					<stop  offset="0" style="stop-color:#BFC6CD"/>
					<stop  offset="0.582" style="stop-color:#E7EAEC"/>
					<stop  offset="1" style="stop-color:#FFFFFF"/>
				</linearGradient>
				<path style="fill:url(#SVGID_00000138549297026543750250000018333259459203523727_);" d="M71,43.3c-3.1-4.3-6.6-7.5-10.2-9.6
					c-4.6-2.7-9.2-3.2-12.6-1.3l-2.5,1.5c3.4-2,8-1.4,12.6,1.3c3.5,2,7.1,5.3,10.2,9.6c8,11.1,9.9,25,4.3,31
					c-0.6,0.6-1.2,1.1-1.9,1.6l2.5-1.5c0.7-0.4,1.4-0.9,1.9-1.6C80.9,68.3,79,54.4,71,43.3z"/>
			</g>
			<g>
				
					<linearGradient id="SVGID_00000127743813932261890870000000823188717914101155_" gradientUnits="userSpaceOnUse" x1="42.6622" y1="55.6081" x2="73.7127" y2="55.6081">
					<stop  offset="0" style="stop-color:#ABDCF7"/>
					<stop  offset="0.4515" style="stop-color:#60A5FB;stop-opacity:0.9368"/>
					<stop  offset="1" style="stop-color:#005EFF;stop-opacity:0.86"/>
				</linearGradient>
				<path style="fill:url(#SVGID_00000127743813932261890870000000823188717914101155_);" d="M58.3,37.8c3.1,1.8,6.2,4.6,8.9,8.4
					c7,9.7,8.7,21.8,3.7,27c-2.5,2.7-6.4,3-10.4,1.4c-0.8-0.3-1.5-0.7-2.3-1.1c-3.1-1.8-6.2-4.6-8.9-8.4c-7-9.7-8.7-21.8-3.7-27
					C48.5,34.8,53.4,35,58.3,37.8z"/>
			</g>
		</g>
	</g>
</g>
</svg>
